<svg xmlns:xlink="http://www.w3.org/1999/xlink" xmlns="http://www.w3.org/2000/svg" xml:space="preserve" viewBox="12.466660000000001 24.6666 73.6 52" version="1.1" style="max-height: 500px" width="73.6" height="52"><g id="Clock"/><g id="Calendar"/><g id="Document"/><g id="Bin"/><g id="Setting"/><g id="Layer_6"><g><path d="M78.559,75.557H19.956c-3.493,0-6.337-3.109-6.337-6.932V32.639c0-3.821,2.844-6.932,6.337-6.932h58.603    c3.494,0,6.337,3.11,6.337,6.932v35.986C84.896,72.447,82.053,75.557,78.559,75.557z M19.956,31.858    c-0.724,0-1.169,0.505-1.169,0.78v35.986c0,0.275,0.445,0.78,1.169,0.78h58.603c0.724,0,1.169-0.505,1.169-0.78V32.639    c0-0.275-0.445-0.78-1.169-0.78H19.956z"/></g><polygon points="81,30.6 49.231,49.131 18.08,30.609 14.604,35.232 49.157,55.777 84.435,35.25"/></g></svg>